<?xml version="1.0" encoding="utf-8"?>
<svg viewBox="0 0 1106.7 1126.11" style="enable-background:new 0 0 1106.7 1126.11;" xmlns="http://www.w3.org/2000/svg">
  <defs>
    <style type="text/css">
	.st0{fill:#333333;}
	.st1{opacity:0.61;fill:#FFC000;}
	.st2{fill:#121214;}
	.st3{fill:#FFFFFF;}
	.st4{fill:#F2B52F;}
	.st5{clip-path:url(#SVGID_6_);}
	.st6{fill:#161616;}
	.st7{clip-path:url(#SVGID_12_);}
	.st8{opacity:0.4;}
	.st9{fill:#FBFBFB;}
	.st10{fill:#F7F7F7;}
	.st11{fill:#F3F3F3;}
	.st12{fill:#EFEFEF;}
	.st13{fill:#EBEBEB;}
	.st14{fill:#E7E7E7;}
	.st15{fill:#E3E3E3;}
	.st16{fill:#DFDFDF;}
	.st17{fill:#DBDBDB;}
	.st18{fill:#D7D7D7;}
	.st19{fill:#D3D3D3;}
	.st20{fill:#CFCFCF;}
	.st21{fill:#CBCBCB;}
	.st22{fill:#C7C7C7;}
	.st23{fill:#C3C3C3;}
	.st24{fill:#BEBEBE;}
	.st25{fill:#BABABA;}
	.st26{fill:#B6B6B6;}
	.st27{fill:#B2B2B2;}
	.st28{fill:#AEAEAE;}
	.st29{fill:#AAAAAA;}
	.st30{fill:#A6A6A6;}
	.st31{fill:#A2A2A2;}
	.st32{fill:#9E9E9E;}
	.st33{fill:#9A9A9A;}
	.st34{fill:#969696;}
	.st35{fill:#929292;}
	.st36{fill:#8E8E8E;}
	.st37{fill:#8A8A8A;}
	.st38{fill:#868686;}
	.st39{fill:#828282;}
	.st40{clip-path:url(#SVGID_14_);fill:#121214;}
	.st41{clip-path:url(#SVGID_16_);}
	.st42{opacity:0.2;}
	.st43{clip-path:url(#_x30_6_1_);}
	.st44{clip-path:url(#SVGID_22_);}
	.st45{clip-path:url(#SVGID_24_);fill:#121214;}
	.st46{fill:#1D1D1E;}
	.st47{fill:#FFC000;}
	.st48{clip-path:url(#SVGID_32_);}
	.st49{clip-path:url(#SVGID_34_);fill:#121214;}
	.st50{clip-path:url(#SVGID_38_);}
	.st51{clip-path:url(#SVGID_40_);fill:#FFC000;}
	.st52{opacity:0.47;}
	.st53{opacity:0.25;}
	.st54{fill-rule:evenodd;clip-rule:evenodd;fill:#121214;}
	.st55{fill:#352012;}
	.st56{fill:#DD8254;}
	.st57{fill:#CE7751;}
	.st58{fill:#111111;}
	.st59{fill:#D19A00;}
	.st60{opacity:0.25;fill:#D19A00;}
	.st61{fill:#FFC000;stroke:#E8AD07;stroke-width:2;stroke-miterlimit:10;}
	.st62{opacity:0.17;fill:#FFC000;}
</style>
  </defs>
  <g id="OBJECTS">
    <g>
      <g>
        <path d="M437.29,781.54c7.26,5.81,14.26,11.98,21.82,17.36c19.01,13.52,40.35,20.66,63.53,23.4c18.95,2.23,37.55,0.53,55.77-3.86 c32.07-7.73,60.95-22.52,87.35-42.27c29.68-22.2,54.86-48.78,75.48-79.44c10.52-15.64,19.18-32.53,28.78-48.8 c2.52-4.28,2.21-7.19-1.48-11.26c-34.54-38.01-18.16-97.66,30.93-113.11c3.75-1.18,5.68-2.67,5.88-6.78 c2.03-41.53-3.38-81.57-22.67-119.08c-14.87-28.93-36.42-51.09-65.89-64.89c-25.05-11.73-51.61-14.86-79.04-11.42 c-42.29,5.3-78.92,23.4-112.26,49.12c-1.43,1.11-3.17,1.82-4.77,2.71c-0.33-0.39-0.66-0.78-0.98-1.18 c9.65-8.57,19.04-17.46,29-25.66c28.27-23.27,59.97-40.24,95.43-49.56c39.19-10.3,77.89-8.78,114.76,9.06 c27.22,13.17,48.54,33.55,64.77,59.04c19.67,30.9,30.92,64.91,34.08,101.22c1.83,21.05,1.06,42.31,1.67,63.48 c0.05,1.92,1.11,4.39,2.55,5.59c23.01,19.29,30.33,43.74,24.3,72.68c-4.52,21.72-27.3,44.46-49.12,48.58 c-6.78,1.28-10.87,4.2-13.89,10.89c-15.59,34.46-35.42,66.42-59.95,95.25c-30.72,36.09-66.69,65.66-110.46,84.75 c-32.03,13.97-65.56,20.23-100.45,15.68c-36.31-4.73-66.95-21.14-91.63-48.06c-9.15-9.98-16.83-21.3-25.19-32 C436.17,782.48,436.73,782.01,437.29,781.54z M776.8,589.36c-0.09,23.98,18.74,43.16,42.36,43.14 c23.71-0.02,42.51-18.93,42.68-42.92c0.16-23.01-19.52-42.45-42.82-42.32C795.79,547.4,776.89,566.25,776.8,589.36z"/>
        <g>
          <g>
            <path d="M274.55,463.82v-73.7h30.96v73.63c0,9.63,8.26,16.02,17.02,16.02c8.69,0,17.17-6.54,17.17-16.02v-73.63h30.96v73.7 c0,26.58-21.55,45.33-48.06,45.33C296.1,509.15,274.55,490.4,274.55,463.82z"/>
            <path d="M369.03,486.3l18.61-18.25c4.81,7.11,13.79,11.42,23.49,11.42c6.54,0,12.93-2.37,12.93-7.11 c0-5.96-11.85-11.21-23.2-16.23c-14.65-6.32-27.22-15.95-27.22-33.4c0-20.04,19.04-34.34,41.02-34.34 c17.67,0,31.46,8.33,35.99,19.75l-17.74,17.1c-3.45-6.11-12.36-8.76-17.89-8.76c-6.32,0-10.85,3.23-10.85,7.18 c0,5.32,8.19,7.04,20.69,12.28c18.1,7.61,30.1,18.68,30.1,35.77c0,22.05-20.54,35.77-43.75,35.77 C392.16,507.49,374.85,499.09,369.03,486.3z"/>
            <path d="M578.44,389.04v116.87H547.7v-45.9l-31.18,43.96h-0.22l-31.25-43.96v45.9h-30.74V389.04h12.36l49.71,68.1l49.71-68.1 H578.44z"/>
            <path d="M679.68,390.12v115.79h-30.67v-43.6H614.6v43.6h-30.74V390.12h30.74v43.46h34.41v-43.46H679.68z"/>
          </g>
          <g>
            <path d="M407.84,687.48c0,42.01-36.83,71.2-79.79,71.2c-41.19,0-74.75-28.78-79.93-61.92l48.56-11.59 c3.96,12.55,16.78,18.96,28.1,18.96c14.32,0,24.01-10.09,24.01-24.01c0-17.46-16.5-33.42-49.92-33.69l6.68-25.91 c21,0,33.42-10.78,33.42-23.6c0-9.68-6.96-16.64-16.1-16.64c-7.77,0-15,5.05-18.28,14.32l-48.56-10.64 c7.77-31.92,34.1-55.51,70.79-55.51c38.46,0,68.74,25.23,68.74,59.06c0,18.28-9.41,35.33-24.96,42.56 C391.75,638.78,407.84,659.93,407.84,687.48z"/>
            <path d="M542.93,682.84c0,40.92-35.33,76.66-83.75,76.66c-44.46,0-82.52-24.96-82.52-75.84c0-18.96,5.32-39.28,72.15-148.26 l66.56,0.27l-48.42,79.66c2.59-0.41,5.18-0.55,7.77-0.55C510.6,614.78,542.93,643.56,542.93,682.84z M485.09,681.07 c0-14.59-11.32-25.51-24.96-25.51c-13.5,0.14-24.82,10.77-24.82,25.64c0,14.59,11.05,24.82,24.69,24.82 C473.64,706.03,485.09,695.52,485.09,681.07z"/>
            <path d="M511.74,645.33c0-69.15,38.05-114.57,97.66-114.57c59.06,0,96.71,45.42,96.71,114.44 c0,69.15-37.65,114.57-96.71,114.57C549.8,759.77,511.74,714.35,511.74,645.33z M647.59,645.47c0-35.6-14.87-59.33-38.74-59.33 c-23.87,0-38.87,23.6-38.87,59.06c0,35.33,15,58.92,39.01,58.92C632.73,704.12,647.59,680.66,647.59,645.47z"/>
          </g>
        </g>
      </g>
    </g>
  </g>
</svg>