<?xml version="1.0" encoding="utf-8"?>
<svg viewBox="0 0 1101.84 1126.11" style="enable-background:new 0 0 1101.84 1126.11;" xmlns="http://www.w3.org/2000/svg">
  <defs>
    <style type="text/css">
	.st0{fill:#333333;}
	.st1{opacity:0.61;fill:#FFC000;}
	.st2{fill:#121214;}
	.st3{fill:#FFFFFF;}
	.st4{fill:#F2B52F;}
	.st5{clip-path:url(#SVGID_6_);}
	.st6{fill:#161616;}
	.st7{clip-path:url(#SVGID_12_);}
	.st8{opacity:0.4;}
	.st9{fill:#FBFBFB;}
	.st10{fill:#F7F7F7;}
	.st11{fill:#F3F3F3;}
	.st12{fill:#EFEFEF;}
	.st13{fill:#EBEBEB;}
	.st14{fill:#E7E7E7;}
	.st15{fill:#E3E3E3;}
	.st16{fill:#DFDFDF;}
	.st17{fill:#DBDBDB;}
	.st18{fill:#D7D7D7;}
	.st19{fill:#D3D3D3;}
	.st20{fill:#CFCFCF;}
	.st21{fill:#CBCBCB;}
	.st22{fill:#C7C7C7;}
	.st23{fill:#C3C3C3;}
	.st24{fill:#BEBEBE;}
	.st25{fill:#BABABA;}
	.st26{fill:#B6B6B6;}
	.st27{fill:#B2B2B2;}
	.st28{fill:#AEAEAE;}
	.st29{fill:#AAAAAA;}
	.st30{fill:#A6A6A6;}
	.st31{fill:#A2A2A2;}
	.st32{fill:#9E9E9E;}
	.st33{fill:#9A9A9A;}
	.st34{fill:#969696;}
	.st35{fill:#929292;}
	.st36{fill:#8E8E8E;}
	.st37{fill:#8A8A8A;}
	.st38{fill:#868686;}
	.st39{fill:#828282;}
	.st40{clip-path:url(#SVGID_14_);fill:#121214;}
	.st41{clip-path:url(#SVGID_16_);}
	.st42{opacity:0.2;}
	.st43{clip-path:url(#_x30_6_1_);}
	.st44{clip-path:url(#SVGID_22_);}
	.st45{clip-path:url(#SVGID_24_);fill:#121214;}
	.st46{fill:#1D1D1E;}
	.st47{fill:#FFC000;}
	.st48{clip-path:url(#SVGID_32_);}
	.st49{clip-path:url(#SVGID_34_);fill:#121214;}
	.st50{clip-path:url(#SVGID_38_);}
	.st51{clip-path:url(#SVGID_40_);fill:#FFC000;}
	.st52{opacity:0.47;}
	.st53{opacity:0.25;}
	.st54{fill-rule:evenodd;clip-rule:evenodd;fill:#121214;}
	.st55{fill:#352012;}
	.st56{fill:#DD8254;}
	.st57{fill:#CE7751;}
	.st58{fill:#111111;}
	.st59{fill:#D19A00;}
	.st60{opacity:0.25;fill:#D19A00;}
	.st61{fill:#FFC000;stroke:#E8AD07;stroke-width:2;stroke-miterlimit:10;}
	.st62{opacity:0.17;fill:#FFC000;}
</style>
  </defs>
  <g id="OBJECTS">
    <g>
      <g transform="matrix(1, 0, 0, 1, -22.007156, 1.594034)">
        <g>
          <path class="st2" d="M49.95,551.06c0.92-10.14,1.73-20.29,2.77-30.41c7.45-72.16,29.68-139.49,67.57-201.33 c55.41-90.43,131.89-156.88,229.6-198.48c44.14-18.8,90.18-30.61,137.95-35.16c135.24-12.88,256.38,22.74,361.6,108.63 c88.02,71.85,143.83,164.33,168.38,275.39c10.23,46.27,13.05,93.14,9.45,140.33c-12.73,166.8-111.39,316.71-259.51,394.92 c-51.26,27.06-105.46,45.44-162.97,52.2c-160.65,18.87-299.43-28.19-414.2-142.33C122.37,846.95,79.29,764.64,60.05,670.33 c-4.76-23.34-6.27-47.35-9.28-71.05c-0.26-2.03-0.55-4.06-0.82-6.09C49.95,579.14,49.95,565.1,49.95,551.06z M1014.22,572.49 c0.35-261.57-212.03-474.51-473.9-475.14c-262.83-0.63-475.5,211.32-475.9,474.29c-0.4,261.89,212.15,475.11,474,475.49 C800.95,1047.51,1013.87,835.11,1014.22,572.49z" style="fill: rgb(255, 255, 255);"/>
          <path class="st2" d="M538.95,950.53c-208.43-0.02-378.2-169.98-378.08-378.52c0.12-208.43,170.07-378.21,378.56-378.21 c208.68,0.01,378.28,169.94,378.17,378.92C917.49,781.33,747.89,950.55,538.95,950.53z M539.16,936.22 c200.73,0.12,363.61-162.53,364.09-363.56c0.48-200.46-162.72-364.15-363.29-364.38c-200.98-0.23-364.39,162.71-364.63,363.58 C175.1,772.71,338.25,936.1,539.16,936.22z" style="fill: rgb(255, 255, 255);"/>
          <path class="st2" d="M676.96,975.9c-1.2,2-2.42,4-3.59,6.02c-4.66,8.01-0.96,15.43,8.25,15.99c12.11,0.73,22.7-4.06,32.92-9.83 c2.68-1.52,1.96-3.38-0.07-4.85c-3.88-2.79-7.75-5.6-11.84-8.06c-2.55-1.53-3.18-3.02-1.93-5.77c1.42-3.13,2.4-6.46,3.76-10.24 c3.43,1.98,6.37,3.79,9.41,5.41c5.19,2.75,16.98,1.46,21.22-2.4c0.77-0.7,1.44-2.42,1.11-3.25c-2.49-6.34,1.77-10.47,5.62-15.52 c1.65,4.44,3.3,8.88,5.16,13.89c2.39-0.86,4.75-1.37,6.7-2.55c0.94-0.57,1.75-2.52,1.54-3.64c-0.88-4.65,0.09-9.57,3.75-14.76 c1.4,1.87,2.68,3.56,3.95,5.27c2.98,4.01,6.33,5.06,10.77,3.03c3.62-1.65,7.22-3.41,10.58-5.53c1.03-0.65,1.93-2.81,1.66-4 c-1.24-5.32-0.51-9.92,3.89-16.78c1.83,5.31,3.37,9.77,5.16,14.98c3.96-2.28,7.87-4.53,11.94-6.87 c-1.62-6.43-0.87-12.31,3.41-19.14c1.97,5.13,3.51,9.13,5.23,13.62c2.78-1.73,5.51-3.43,8.27-5.15 c-3.88-5.4-3.79-12.11,0.2-18.27c5.87,6.54,12.94,12.15,13.56,21.78c0.1,1.56-0.59,3.97-1.73,4.68 c-6.41,4-13.16,7.45-19.61,11.38c-5.08,3.1-9.8,6.79-14.89,9.86c-2.07,1.25-4.71,1.56-8.05,2.6 c-3.02,4.73-18.98,12.88-23.47,11.98c-2.35,1.78-3.95,3.61-5.96,4.38c-6.28,2.42-12.82,4.16-19.04,6.7 c-4.75,1.94-8.97,5.3-13.8,6.94c-4.74,1.62-7.1,3.63-7.59,9.02c-0.34,3.73-2.41,8.28-5.23,10.63 c-11.7,9.7-25.2,15.42-40.73,15.23c-11.24-0.14-15.52-5.66-13.35-16.63C665.81,987.73,668.7,980.22,676.96,975.9z" style="fill: rgb(255, 255, 255);"/>
          <path class="st2" d="M495.16,961.64c1.32,9.09,2.67,18.17,3.94,27.26c1.03,7.41,2.29,9.2,9.79,9.73 c9.37,0.66,18.81,0.64,28.21,0.56c1.17-0.01,3.36-2.23,3.31-3.33c-0.43-8.29,5.86-11.31,12.32-15.07 c-0.24,3.31-0.3,6.64-0.77,9.91c-0.82,5.66,0.54,7.93,6.28,8.1c5.72,0.17,11.46-0.34,17.17-0.86c0.96-0.09,2.46-1.7,2.54-2.7 c0.54-6.66,6.18-8.95,9.72-13.02c0.57,0.23,1.14,0.45,1.71,0.68c-0.91,4.5-1.83,9-2.8,13.8c2.32,0,4.62,0.11,6.9-0.03 c2.22-0.14,4.42-0.56,6.76-0.87c1.68-6.32,5.17-11.28,12.29-15.4c-0.89,5.35-1.54,9.31-2.32,14c3.29-0.36,6.21-0.68,9.42-1.02 c-1.15-7.64,4-11.58,8.81-16.98c2.58,9.32,5.53,17.59,1.32,26.16c-0.73,1.49-2.85,3.02-4.49,3.23 c-7.18,0.89-14.44,1.11-21.62,1.96c-5.16,0.61-10.21,2.1-15.37,2.64c-2.62,0.28-5.37-0.68-8.07-1.02 c-0.7-0.09-1.54-0.22-2.12,0.06c-8.7,4.28-18.05,2.8-27.12,2.62c-3.12-0.06-6.18-3.16-10.07-5.32c0.94-0.28,0.51-0.29,0.41-0.1 c-3.08,5.36-7.72,6.65-13.65,6.12c-8.09-0.72-16.24-0.73-24.37-1.12c-8.81-0.42-13.12-1.75-14.49-11.05 c-0.08-0.55-0.52-1.05-0.91-1.81c-0.84,0.65-1.63,1-2.04,1.61c-4.44,6.58-10.45,6.78-17.28,4.62c-6.8-2.15-13.69-4-21.09-6.14 c4.1-8.37,9.23-14.97,17.93-17.95c3.9-1.33,8.02-2.03,11.97-3.23c2.95-0.89,5.52-1.16,6.78-5.66c1.16-4.17,6.22-7.26,9.57-10.82 C494.19,961.35,494.67,961.49,495.16,961.64z M472.38,989.14c5.27,0.88,9.46,1.59,14.26,2.39c-0.66-3.42-1.13-5.82-1.59-8.21 C481,985.19,477.23,986.92,472.38,989.14z" style="fill: rgb(255, 255, 255);"/>
          <path class="st2" d="M197.12,322.73c-3.62,8.86-6.49,17.09-10.27,24.87c-5.48,11.29-11.69,22.23-17.4,33.42 c-0.81,1.58-1.29,3.96-0.7,5.51c5.33,13.98,4.76,27.02-4.91,39.15c-4.3,5.4-8.04,11.24-12.82,16.52 c10.27-16.12,10.54-33.58,9.32-52.59c-4.82,2.46-8.15,4.16-12.36,6.31c-1.21-4.11-2.49-7.63-3.15-11.25 c-0.17-0.95,1.44-3.02,2.53-3.27c11.14-2.49,16.14-10.93,20.62-20.22c3.11-6.44,6.92-12.54,10.37-18.83 c0.71-1.3,1.2-2.73,1.33-4.35c-7.54,5.42-13.75,11.71-15.56,21.36c-1.43-10.83-3.12-21.74,5.57-30.48 c5.27-5.3,11.12-10.03,16.84-14.85c7.03-5.92,14.19-11.66,21.56-17.7c1.98,8.04,1.71,15.21-5.87,20.57 c0.32,0.4,0.64,0.8,0.96,1.21c1.4-0.69,3.35-1.02,4.1-2.14c4.06-6.07,7.94-12.28,11.54-18.63c0.45-0.8-0.78-3.44-1.89-4.07 c-6.34-3.62-12.79-7.1-19.43-10.13c-1.69-0.77-4.2,0.27-7.12,0.55c-0.25-5.22-0.5-10.48-0.78-16.2 c9.34,1.94,14.81-4.72,22.37-7.29c-0.38,4.18-1.05,7.92-0.93,11.64c0.06,1.86,1.07,4.65,2.49,5.36 c9.37,4.71,11.03,13.86,13.46,22.53c0.47,1.66,0.1,3.94-0.71,5.51c-3.69,7.22-7.22,14.59-11.66,21.35 c-5.86,8.91-10.84,8.28-15.87-1.29C198.49,324.76,198.13,324.29,197.12,322.73z" style="fill: rgb(255, 255, 255);"/>
          <path class="st2" d="M931.86,322.94c-5.22,4.91-9.55,9.05-13.95,13.11c-3.28,3.03-6.77,5.84-9.91,9 c-0.86,0.87-1.56,3.05-1.08,3.94c6.2,11.28,12.64,22.44,19,33.63c0.55,0.97,0.99,2,2.1,2.44c-1.08-11.49-4.62-21.41-15.94-28.2 c2.61-0.62,3.85-1.33,4.86-1.09c8.13,1.91,15.72,4.96,19.17,13.35c2.17,5.27,3.63,10.85,5.19,16.35 c3.08,10.86,6.01,21.76,9.01,32.64c0.37,1.34,0.75,2.68,1.17,4.18c-11.33,1.14-11.87-8.75-16.25-14.68 c4.34,12.8,8.67,25.6,13.52,39.9c1.45-4.11,2.64-6.94,3.43-9.89c0.78-2.91,2.37-3.28,4.96-2.49c6.89,2.1,8.22,4.31,6.23,11.22 c-0.57,1.98-1.35,3.92-2.29,5.76c-3.86,7.54-14.51,9.62-20.83,3.98c-1.06-0.94-1.38-2.78-1.89-4.25 c-5.22-15.18-10.26-30.44-15.68-45.55c-2.73-7.61-3.05-7.5,4.41-12.15c-3.21-2.62-6.45-4.86-9.17-7.61 c-3.29-3.34-6.65-6.82-9.06-10.79c-5.62-9.25-10.58-18.89-16.07-28.23c-1.5-2.55-1.45-4.02,0.76-6.05 c7.05-6.46,14.08-12.98,20.74-19.84c2.89-2.98,5.48-3.75,9.14-1.96C925.69,320.76,928.12,321.5,931.86,322.94z" style="fill: rgb(255, 255, 255);"/>
          <path class="st2" d="M545.97,172.79c-5.21,1.65-13.93-0.49-16.74-5c-1.5-2.4-2.36-6.26-1.55-8.84 c3.17-10.08,11.61-14.72,20.29-18.83c0.29,0.35,0.58,0.69,0.87,1.04c-2.2,1.73-4.39,3.48-6.6,5.19 c-3.23,2.49-5.97,5.87-4.46,9.73c1.03,2.61,4.26,5.07,7.06,6.14c11.36,4.37,23.08,2.49,35.47,1.38 c-6.42-5.77-14.08-4.23-20.92-5.78c3.39-6.8,8.03-9.44,14.75-8.69c10.45,1.16,20.9,2.28,31.35,3.45c2.66,0.3,4.19-0.3,6.22-2.73 c2.75-3.28,7.27-5.09,11.03-7.53c0.52,0.48,1.03,0.96,1.55,1.43c-1.89,3.41-3.77,6.83-6.49,11.75c6.52-0.5,12.06-0.9,17.6-1.37 c9.66-0.82,19.3-2.12,28.97-2.38c7.23-0.19,13.2,3.28,17.27,9.49c2.1,3.2,2.2,6.24-1.02,8.89c-2.46,2.03-4.7,4.39-7.37,6.07 c-1.51,0.95-3.84,1.45-5.57,1.07c-17.7-3.9-35.48-7.56-52.94-12.37c-5.42-1.49-10.8-0.93-16.04-2.28c-4.06-1.04-7,0.79-9.8,3.44 c-6.6,6.24-14.7,7.73-23.39,7.08c-0.76-0.27-1.54-0.54-2.33-0.82c-3.74,3.26-7.6,2.51-11.77,0.76 c-1.61-0.67-3.73-0.14-5.62-0.15L545.97,172.79z M639.78,158.51c9.09,2.3,18.18,4.61,28.19,7.14 C659.77,155.77,649.54,157.61,639.78,158.51z" style="fill: rgb(255, 255, 255);"/>
          <path class="st2" d="M283.12,208.18c-4.09-5.43,0.79-10.4,0.32-15.69c0.38-0.23,0.77-0.46,1.15-0.7 c3.06,2.37,6.19,4.66,9.16,7.14c3.3,2.76,6.6,5.55,9.62,8.61c3.22,3.26,6.65,3.44,10.39,1.41c8.94-4.86,17.84-9.79,27.31-15 c-5.4-7.41-0.95-12.94,4.11-19.55c1.17,3.37,2.4,5.89,2.87,8.55c0.7,3.94,2.84,5.08,6.42,4.17c1.84-0.47,3.66-1.07,5.41-1.78 c9.11-3.7,18.2-7.45,28.24-11.58c-4.09-2.27-7.6-4.22-11.62-6.45c1.47-3.61,3-7.37,4.49-11.05 c12.11,1.21,20.24,11.63,18.36,23.47c-0.18,1.15-1.71,2.52-2.93,3.02c-13.22,5.47-26.43,11-39.84,16.01 c-3.45,1.29-7.55,0.82-12.19,1.24c0.68,6.29-5.64,7.58-10.48,10.33c-5.12,2.91-10.4,5.59-15.32,8.81 c-6.12,4-12.02,7.11-18.16,0.71c-0.65,0.44-1.12,0.61-1.11,0.76c0.24,8.13-4.79,12.11-11.41,15.28 c-5.28,2.53-10.21,5.78-15.69,8.94c-2.62-6.67-3.88-13.21-0.4-19.49C275.08,219.52,279.14,214.16,283.12,208.18z M283,222.97 c4.39-2.67,7.76-4.72,11.59-7.04c-2.33-1.7-4.02-2.93-5.7-4.16C286.97,215.43,285.3,218.6,283,222.97z" style="fill: rgb(255, 255, 255);"/>
          <path class="st2" d="M412.38,157.8c2.85,7.53,2.83,7.48,10.78,5.43c6.92-1.78,13.87-3.46,21.74-5.41 c-2.37-3.58-4.21-7.08-6.72-9.98c-2.58-2.98-3.07-5.54-0.81-8.86c1.49-2.18,2.46-4.71,4.17-8.08c4.52,6.39,8.9,11.8,12.39,17.73 c3.18,5.42,6.94,7.17,12.96,5.28c3.43-1.08,7.17-1.15,11.73-1.82c-3.6-8.08-2.63-18.01-13.93-22.35 c3.71-4.41,7.08-8.42,9.59-11.4c7.84,3.02,14.63,5.65,21.74,8.39c-2.42,2.29-4.75,4.92-7.5,6.99c-3.25,2.45-2.9,5.34-1.79,8.49 c1.17,3.34,1.41,7.38,6.13,8.14c2.51,0.4,5.04,0.86,7.43,1.69c2.72,0.94,4.37,2.91,2.99,5.93c-1.41,3.09-1.86,8.95-6.5,7.09 c-13.12-5.25-25.48-0.54-38.01,1.54c-4.42,0.74-7.68,0.38-10.85-4.24c-2.22,8.5-9.13,8.12-14.92,9.72 c-5.52,1.52-11.04,3.03-16.57,4.49c-5.25,1.38-6.97,0.14-7.54-5.31C408.21,164.67,409.07,161.15,412.38,157.8z" style="fill: rgb(255, 255, 255);"/>
          <path class="st2" d="M107.07,523.99c1.59-1.42,2.76-2.77,4.2-3.72c7.99-5.29,9.24-13.68,10.16-22.15 c0.13-1.16-0.81-2.64-1.63-3.67c-3.47-4.37-5.1-9.34-6-16.07c3.62,2.91,6.28,5.04,9.76,7.83c0.86-4.03,1.58-7.44,2.28-10.72 c-7.38-3.52-6.05-10.64-8.5-16.95c8.43,1.28,15.46,3.24,19.11,10.82c0.8,1.66,0.82,4.01,0.41,5.87 c-1.62,7.43-3.82,14.73-5.26,22.19c-1.08,5.58-1.41,11.32-1.87,17.01c-0.09,1.12,0.36,2.73,1.17,3.39 c7.08,5.85,8.9,13.93,8.84,22.34c-0.1,13.01-0.68,26.05-1.71,39.02c-0.38,4.75-1.57,10.47-6.96,12.19 c-5.62,1.79-8.88-3.15-12.38-6.49c-5.4-5.16-7.78-11.84-8.5-19.41c0.73,1.17,1.51,2.3,2.18,3.51c0.77,1.39,1.11,3.21,2.21,4.19 c2.01,1.78,4.46,4.25,6.71,4.23c1.83-0.02,4.54-2.93,5.29-5.1c4.83-13.94,4.65-28.46,4.21-42.96c-0.02-0.69-0.64-1.37-1.49-3.09 c-4.92,3.68-9.52,7.12-14.62,10.92C112.15,532.81,109.65,528.47,107.07,523.99z" style="fill: rgb(255, 255, 255);"/>
          <path class="st2" d="M948.4,492.03c6.39,1.8,11.79,3.88,13.54,11.2c0.97,4.06,3.61,7.73,6.04,11.53 c1.97-5.86,6.51-11.31,1.73-17.85c-0.51-0.7-0.79-1.79-0.71-2.66c0.85-8.71,1.52-17.46,2.81-26.11c0.74-4.96,2.8-5.7,7.47-3.83 c8.14,3.26,8.89,3.62,7.23,12.33c-2.35,12.31-5.67,24.44-8.6,36.64c-0.63,2.63-1.3,5.26-2.13,7.83 c-1.09,3.39-1.29,6.22,2.86,7.72c4.07,1.48,6.81,0.38,8.38-3.67c0.11-0.28,0.36-0.51,1.09-1.49c3.71,4.42,7.3,8.69,9.64,11.49 c-2.16,8.63-3.96,15.8-6,23.97c-4.1-5.03-8.53-8.55-8.46-14.84c0.01-0.84-0.34-1.95-0.93-2.49c-3.48-3.24-7.09-6.34-11.03-9.83 c-1.09,1.27-2.26,2.5-3.27,3.84c-2.87,3.8-6.86,4.47-11.14,3.71c-0.99-0.18-1.85-1.66-2.53-2.69c-0.4-0.61-0.37-1.53-0.47-2.32 C952.09,520.5,950.28,506.48,948.4,492.03z M961.42,517.79c0.39,2.65,0.77,5.3,1.22,8.37 C966.86,522.64,964.27,520.21,961.42,517.79z" style="fill: rgb(255, 255, 255);"/>
          <path class="st2" d="M301.2,932.79c-4.12-0.68-7.48-0.93-10.65-1.82c-7.67-2.15-13.99-10.69-13.5-17.81 c0.56-8.02,8.33-15.61,17.27-16.55c9.12-0.96,16.98,2.05,23.41,8.48c5.3,5.29,6.7,11.82,4.66,18.94 c-2.29,7.97-6.54,14.87-12.64,20.47c-11.83,10.86-34.63,7.07-42.59-6.94c-2.37-4.17-2.7-8.38,0.03-13.4 c4.07,1.95,8.13,3.89,12.46,5.96c-1.32,4.9,0.69,8,5.14,9.73C292.3,942.78,296.11,937.27,301.2,932.79z M299.55,925.34 c5.35,0.05,10.33-4.98,10.29-10.39c-0.04-4.59-4.33-8.56-9.16-8.47c-4.8,0.09-10.28,5.74-10.39,10.73 C290.18,921.74,294.23,925.3,299.55,925.34z" style="fill: rgb(255, 255, 255);"/>
          <path class="st2" d="M400.97,949.5c-1.4,2.07-2.79,4.14-4.44,6.58c3.5,0.66,6.63,0.99,9.6,1.85 c10.63,3.11,16.75,11.3,15.55,20.51c-1.15,8.85-9.95,15.63-21.13,15.67c-8.12,0.03-15.79-2.15-22.35-7.17 c-4.97-3.8-7.87-8.63-6.37-15.85c4.21,1,8.22,1.78,12.09,2.99c0.96,0.3,1.84,1.88,2.16,3.03c1.39,5.08,5.68,7.94,11.69,7.53 c4.97-0.34,8.61-4.03,9.23-9.33c0.6-5.15-1.73-8.46-7.42-9.94c-2.11-0.55-4.62-1.06-6.58-0.44c-5.78,1.84-10.06-1.32-15.41-3.66 c1.34-2.05,2.46-3.87,3.69-5.61c3.76-5.34,7.45-10.74,11.45-15.9c0.91-1.18,3.15-2.39,4.4-2.08 c10.16,2.55,20.22,5.46,30.96,8.43c-0.52,1.93-1.19,3.81-1.52,5.75c-0.52,3.09-1.99,3.85-5.02,2.99 C414.83,952.95,408.04,951.32,400.97,949.5z" style="fill: rgb(255, 255, 255);"/>
          <path class="st2" d="M837.15,214.24c-1.54,9.4,5.32,14.7,8.32,22.46c-3.92-0.21-7.32-0.16-10.64-0.65 c-3.37-0.49-5.3,0.75-6.88,3.65c-2.66,4.88-5.33,9.74-10.97,12.13c-3.44,1.46-6.1,1.6-9.13-1.01 c-6.28-5.39-12.8-10.49-19.39-15.51c-1-0.76-2.89-0.7-4.29-0.49c-3.45,0.5-6.84,1.56-10.3,1.94 c-5.86,0.65-11.72-0.05-16.18-4.18c-6.06-5.62-11.64-11.75-17.38-17.71c-0.58-0.61-0.83-1.53-1.29-2.4 c0.63-0.12,1.06-0.32,1.16-0.21c9.51,10.28,22.42,11.97,35.2,13.83c6.25,0.91,7.39-0.7,5.76-6.62 c-0.57-2.08-1.03-6.04-0.43-6.27c3.17-1.23,6.67-1.68,10.1-2.01c0.52-0.05,1.78,1.9,1.77,2.92 c-0.08,14.6,11.9,19.52,21.74,27.56c3.63-8.49,10.82-15.11,6.71-26.1C826.51,215.12,831.58,214.7,837.15,214.24z" style="fill: rgb(255, 255, 255);"/>
          <path class="st2" d="M318.25,949.42c2.85,0.95,5.22,1.91,7.68,2.51c3.53,0.86,5.75,2.09,5.67,6.54 c-0.07,4.15,4.99,7.2,10.33,7.24c4.92,0.03,8.71-2.83,9.41-7.09c0.7-4.29-1.67-7.37-7.11-9.23c-1.33-0.46-2.67-0.9-4.02-1.36 c2.74-6.42,3.42-6.42,9.99-5.99c2.56,0.17,5.57-1.53,7.74-3.2c0.82-0.63,0.53-4.11-0.44-5.39c-2.43-3.2-6.85-4.69-9.81-2.54 c-6.75,4.9-10.12-0.74-15.16-3.29c4.44-5.8,10.07-7.67,16.55-7.12c7.51,0.63,14.36,3.14,19.5,8.91 c7.03,7.88,5.11,15.19-4.73,18.76c-1.64,0.6-3.32,1.09-5.48,1.8c1.12,1.2,2.02,2.22,2.97,3.17c6.21,6.23,5.38,14.63-2.15,19.35 c-5.17,3.24-10.9,4.18-16.97,3.21c-8.26-1.33-15.7-4.31-21.21-10.82C317.4,960.57,315.45,955.66,318.25,949.42z" style="fill: rgb(255, 255, 255);"/>
          <path class="st2" d="M713.43,143.93c-1.55,6.9-2.79,12.72-4.17,18.51c-0.96,4.02-2.13,7.99-3.17,12 c-0.69,2.64-0.06,4.46,2.75,5.66c10.23,4.35,20.37,8.9,31.49,13.79c-1.2-4.47-2.23-8.33-3.47-12.92 c3.74-1.44,7.63-2.93,11.43-4.39c7.25,11.09,5.28,22.64-4.93,29.63c-0.87,0.6-2.69,0.46-3.78-0.01 c-14.87-6.48-29.66-13.16-44.57-19.56c-2.7-1.16-3.14-2.52-2.55-5.09c2.26-9.76,4.45-19.54,6.53-29.34 c0.58-2.75,1.73-4.59,4.62-5.3C706.5,146.21,709.29,145.2,713.43,143.93z" style="fill: rgb(255, 255, 255);"/>
          <path class="st2" d="M236.33,880.2c4.65-7.48,5.51-7.38,12.83-6.26c5.69,0.87,11.67-0.22,17.4,0.52 c3.74,0.48,7.25,2.69,11.82,4.5c-13.08,15.23-25.18,29.32-37.73,43.93c-4.1-2.85-8.07-5.6-12.62-8.76 c8.97-9.85,17.61-19.34,26.47-29.06C248.22,883.39,242.4,881.83,236.33,880.2z" style="fill: rgb(255, 255, 255);"/>
          <path class="st2" d="M857.25,297.9c2.99-1.98,5.73-3.81,8.98-5.96c6.2,7.73,12.23,15.26,18.65,23.27 c2.39-8.04-1.91-14.28-4-21.33c3.65-0.77,7-1.62,10.4-2.09c0.97-0.13,2.67,0.55,3.06,1.35c4.65,9.4,6.13,22.14-2.78,30.57 c-1.9,1.8-4.39,3.33-6.87,4.06c-1.61,0.47-4.52-0.11-5.48-1.31C871.84,317.28,864.81,307.83,857.25,297.9z" style="fill: rgb(255, 255, 255);"/>
          <path class="st2" d="M823.54,868.36c10.76,7.71,22.17,14.68,30.21,25.63c3.26,4.44,4.55,9.61,3.6,15.91 c-1.61-0.98-2.81-1.59-3.87-2.38c-7.9-5.89-15.64-12.01-23.71-17.67c-4.29-3.01-6.55-6.59-6.55-11.83 c0-2.97-0.57-5.94-0.88-8.92C822.74,868.87,823.14,868.61,823.54,868.36z" style="fill: rgb(255, 255, 255);"/>
          <path class="st2" d="M956.37,580.39c9.18-3.19,17.97-6.34,26.86-9.22c1.21-0.39,3.4,0.11,4.21,1.03 c3.56,3.99,6.78,8.28,10.2,12.57C976.44,595.51,962.86,594.08,956.37,580.39z" style="fill: rgb(255, 255, 255);"/>
          <path class="st2" d="M106.44,428.79c21.58-0.76,35.82,4.88,37.91,18.9c-9.55-0.79-19.01-1.51-28.45-2.43 c-1.05-0.1-2.44-1.13-2.92-2.1C110.76,438.67,108.8,434.03,106.44,428.79z" style="fill: rgb(255, 255, 255);"/>
          <path class="st2" d="M975.94,440.24c-5.73-4.84-11.74-8.23-11.14-16.56c0.25-3.46-0.34-6.99-0.78-10.47 c-0.17-1.31-0.62-3.07-1.56-3.71c-8.91-6.1-7.04-15.48-8.04-24.25c8.37,2.21,13.1,7.71,12.68,15.75 c-0.36,6.85,1.12,12.43,6.54,16.94c1.26,1.05,2.11,3.22,2.2,4.93C976.11,428.24,975.94,433.64,975.94,440.24z" style="fill: rgb(255, 255, 255);"/>
          <path class="st2" d="M862.42,243.46c-6.03,18.2-18.93,29.97-31.54,28.21c2.06-3.61,3.99-6.98,5.91-10.36 c1.73-3.05,3.44-6.1,5.14-9.16C846.9,243.21,851.4,241.24,862.42,243.46z" style="fill: rgb(255, 255, 255);"/>
          <path class="st2" d="M247.8,274.22c-8.52-5.84-16.6-11.17-24.39-16.89c-1.34-0.98-1.94-3.61-2.03-5.52 c-0.17-3.87,0.24-7.77,0.43-11.96C240.04,248.01,249.76,260.76,247.8,274.22z" style="fill: rgb(255, 255, 255);"/>
          <path class="st2" d="M105.92,462.45c3.28,7.27,5.38,13.46,0.99,20.24c-3.13,4.84-3.52,9.95-2.82,16.11 c0.67,5.96-3.02,12.41-5.76,18.48c-2.98-6.32-7.12-12.12-2.23-19.09c3.44-4.9,4.7-10.41,2.55-16.29 c-1.52-4.15,0.76-7.34,2.52-10.67C102.55,468.58,104.01,465.96,105.92,462.45z" style="fill: rgb(255, 255, 255);"/>
          <path class="st2" d="M450.73,954.39c3.47-2.11,5.77-3.45,7.99-4.89c2.52-1.64,4.67-1.34,6.75,0.83c3.85,4.02,7.99,5.42,12.9,1.5 c0.84-0.67,2.81-0.72,3.83-0.21c3.34,1.7,6.49,3.79,10.45,6.18c-3.25,2.25-5.73,4.67-8.7,5.75c-1.74,0.63-4.47-0.46-6.38-1.48 c-4.2-2.27-8.06-5.08-12.84-1.08c-0.74,0.62-2.8,0.36-3.85-0.22C457.73,959.05,454.77,956.97,450.73,954.39z" style="fill: rgb(255, 255, 255);"/>
          <path class="st2" d="M245.41,218.65c1.12-6.48,2.82-12.16,11.07-13.06c2.4-0.26,5.73-2.45,6.56-4.56 c1.96-5.01,5.48-7,10.23-7.95c2.14-0.43,4.25-1,6.49-1.53c-0.57,7.45-2.98,10.91-9.23,12.79c-4.82,1.45-8.22,3.59-11.16,8.39 c-2.28,3.72-8.52,5.02-12.99,7.4C246.06,219.64,245.74,219.14,245.41,218.65z" style="fill: rgb(255, 255, 255);"/>
          <path class="st2" d="M525.8,968.05c8.02-10.54,11.96-11.02,24.79-3.27C545.13,975.12,540.01,975.84,525.8,968.05z" style="fill: rgb(255, 255, 255);"/>
          <path class="st2" d="M563.18,172.33c0.78,0.28,1.57,0.55,2.33,0.82c2.86,1.58,5.74,3.17,8.63,4.77 c-3.54,5.24-6.87,6.43-12.14,4.08c-3.55-1.58-6.51-2.01-10.62-0.41c-3.18,1.23-7.71-1.03-11.64-1.73 c0.03-0.51,0.07-1.02,0.1-1.53c2.05-1.85,4.09-3.69,6.14-5.54l-0.18,0.16c2.24,0.66,4.64,1.01,6.68,2.06 C556.97,177.32,560.33,176.13,563.18,172.33z" style="fill: rgb(255, 255, 255);"/>
          <path class="st2" d="M643.38,132.3c12.13-5.9,16.85-5.12,27.17,4.32C661.21,143.31,653.75,142.21,643.38,132.3z" style="fill: rgb(255, 255, 255);"/>
          <path class="st2" d="M400.29,190.17c-2.41,7.69-3.73,8.82-10.95,8.61c-3.22-0.09-5.71,0.27-7.62,3.42 c-2.84,4.69-6.91,1.85-10.69,1.52c1.96-7.39,3.13-8.22,9.68-8.23c1.56,0,4.01-0.53,4.52-1.57c2.44-4.97,6.36-5.05,10.87-4.19 C397.46,190,398.86,190.03,400.29,190.17z" style="fill: rgb(255, 255, 255);"/>
          <path class="st2" d="M316.05,177.89c3.35-11.86,5.63-13.3,22.08-14.24C337.58,173.26,330.76,177.73,316.05,177.89z" style="fill: rgb(255, 255, 255);"/>
          <path class="st2" d="M736.04,214.5c-5.56,2.79-10.23,2.26-13.98-3.27c-0.9-1.33-3.34-2.89-4.52-2.54 c-6.33,1.92-8.35-2.48-10.92-6.46c6.4-3.84,8.21-3.53,12.76,1.25c1.12,1.18,3.15,2.22,4.71,2.15 C729.91,205.36,734.35,208.45,736.04,214.5z" style="fill: rgb(255, 255, 255);"/>
          <path class="st2" d="M90.83,500.9c-4.84-11.61-4.53-13.58,3.79-23.14C99.13,485.51,98.03,492.76,90.83,500.9z" style="fill: rgb(255, 255, 255);"/>
          <path class="st2" d="M819.97,858.04c-0.21,7.23-6.52,10.24-8.8,15.65c-0.11-1.42-0.22-2.85-0.35-4.62 c-3.38,1.39-6.34,1.72-6.79-3.11c-0.4-4.29,2.38-8.95,5.87-9.14c0.96-0.05,2.49,0.84,2.81,1.67c0.28,0.71-0.56,2.26-1.34,2.88 c-1.23,0.97-2.82,1.46-4.27,2.16c0.26,0.49,0.53,0.98,0.79,1.47C811.57,862.87,815.25,860.75,819.97,858.04z" style="fill: rgb(255, 255, 255);"/>
          <path class="st2" d="M539.36,261.95c57.6,0,115.2,0.05,172.8-0.09c4.46-0.01,7.34,1.42,10.09,4.87 c27.29,34.34,54.67,68.62,82.22,102.76c3.43,4.25,4.82,8.44,4.81,13.87c-0.15,87.6-0.06,175.2-0.21,262.79 c-0.01,5.62-0.97,11.44-2.59,16.83c-12.77,42.57-35.77,79.45-64.06,113.24c-37.26,44.51-81.11,81.69-129.16,113.88 c-22.35,14.97-45.93,28.1-68.88,42.18c-3.59,2.2-6.59,1.95-10.2-0.03c-67.95-37.08-130.01-81.95-182.85-138.85 c-33.27-35.84-60.59-75.57-76.72-122.27c-3.52-10.18-5.4-20.39-5.37-31.29c0.25-85.52,0.18-171.05,0.04-256.57 c-0.01-5.26,1.35-9.36,4.66-13.46c27.73-34.4,55.32-68.91,82.82-103.5c2.56-3.22,5.27-4.44,9.32-4.43 C423.84,261.99,481.6,261.95,539.36,261.95z M279.04,648.71c143.87-125.88,286.86-250.99,430.91-377.02c-3.05,0-4.59,0-6.13,0 c-111.21,0-222.42,0.02-333.62-0.07c-3.68,0-6.09,0.99-8.44,3.94c-26.5,33.34-53.2,66.53-79.65,99.91 c-1.78,2.25-2.93,5.67-2.94,8.55c-0.15,86.32-0.12,172.64-0.12,258.95C279.04,644.4,279.04,645.83,279.04,648.71z M555.7,595.35 c-27.49,24.04-54.7,47.85-82.22,71.92c54.47,64.91,108.74,129.58,163.2,194.49c29.5-22.23,56.74-45.91,81.6-72.64 C664.04,724.47,610.03,660.1,555.7,595.35z M760.84,735.71c11.74-17.64,21.34-35.71,29.25-54.74 c6.56-15.78,11.03-31.81,9.42-49.13c-0.45-4.9-0.25-9.89-0.01-14.82c0.18-3.57-0.88-6.3-3.2-9.05 c-35.03-41.59-69.96-83.26-104.92-124.91c-1-1.2-2.09-2.32-3.24-3.61c-27.44,24.02-54.65,47.83-82.07,71.83 C657.72,612.81,709.05,673.98,760.84,735.71z M348.93,776.25c1.28,1.5,2.29,2.7,3.33,3.88c28.97,32.78,61.86,61.21,97.06,87.04 c27.41,20.11,56.04,38.32,85.84,54.68c3,1.65,5.37,1.76,8.35-0.02c11.22-6.69,22.59-13.14,33.88-19.71 c1.18-0.68,2.22-1.6,3.59-2.61c-52.71-62.82-105.16-125.33-157.88-188.15C398.22,733.13,373.66,754.62,348.93,776.25z M799.14,507.31c0-42.25,0-83.12,0-124.97c-20.5,17.94-40.34,35.31-60.46,52.91C758.84,459.28,778.6,482.83,799.14,507.31z M558.32,449.09c3.87,4.63,7.35,8.78,10.83,12.92c13.52,16.12,27.03,32.25,40.59,48.34c3.53,4.19,6.99,4.13,9.69,0.13 c2.09-3.1-0.08-5.1-1.78-7.13c-12.57-15.05-25.19-30.05-37.77-45.08c-1.12-1.34-2.11-2.79-3.16-4.19 c7.52,2.34,15.66,1.67,21.69,7.38c1.05,0.99,5.22,0.59,6.07-0.56c1.15-1.56,1.38-4.92,0.45-6.7 c-3.48-6.76-2.33-13.94-3.13-21.04c1.58,0.97,2.65,2.09,3.65,3.28c12.72,15.13,25.4,30.28,38.14,45.4 c3.31,3.93,6.93,4.1,9.45,0.58c2.21-3.08,0.35-5.37-1.54-7.63c-13.42-15.99-26.85-31.98-40.28-47.97 c-3.56-4.24-7.14-8.47-10.62-12.61c-7.49,4.23-12.57,8.95-9.8,18.35c1.25,4.22,0.81,8.94,1.18,14.03 c-7.25-1.96-13.66-3.8-20.13-5.35c-1.47-0.35-3.53-0.24-4.7,0.57C564.12,443.87,561.47,446.43,558.32,449.09z M713.04,368.85 c-1.81-2.1-3.37-3.87-4.88-5.67c-5.34-6.34-10.59-12.76-16.02-19.02c-3.18-3.66-7.45-3.33-9.06,1.01 c-0.65,1.76,0.47,4.91,1.83,6.58c10.48,12.84,21.22,25.48,31.87,38.18c5.23,6.23,10.38,12.52,15.71,18.65 c3.05,3.51,7.38,3.32,8.85-0.64c0.69-1.86-0.16-5.07-1.48-6.75c-6.37-8.11-13.14-15.92-20.06-24.18 c8.71-7.29,17.09-14.32,25.68-21.51c1.44,1.64,2.6,2.94,3.72,4.27c5.75,6.83,11.48,13.67,17.23,20.5 c2.21,2.63,4.72,3.09,7.49,0.9c2.76-2.18,3.09-4.67,0.8-7.4c-16.28-19.42-32.57-38.84-48.86-58.26 c-2.23-2.66-4.74-3.03-7.46-0.74c-2.72,2.29-2.77,4.89-0.59,7.52c5.8,7,11.66,13.94,17.48,20.91c1.08,1.3,2.08,2.67,3.28,4.22 C729.91,354.69,721.64,361.63,713.04,368.85z M406.14,683.85c-1.74-4.13-2.44-7.81-4.52-10.36 c-13.92-17.04-28.11-33.86-42.26-50.71c-2.28-2.71-4.94-2.66-7.53-0.45c-2.49,2.12-2.68,4.56-0.58,7.11 c0.81,0.99,1.62,1.97,2.44,2.94c12.6,15.03,25.25,30.02,37.79,45.1c4.18,5.03,4,7.27-0.62,11.31 c-4.32,3.78-8.74,7.44-13.17,11.1c-5.34,4.42-7.41,4.25-12.01-0.89c-0.96-1.07-1.85-2.19-2.77-3.29 c-12.31-14.65-24.62-29.3-36.91-43.97c-2.24-2.67-4.64-3.87-7.73-1.27c-2.94,2.47-2.82,5.14-0.5,7.89 c13.85,16.48,27.59,33.05,41.65,49.36c6.23,7.23,15.08,7.93,22.68,2.12c5.94-4.55,11.89-9.22,17.12-14.54 C402.25,692.23,403.87,687.75,406.14,683.85z M518.04,579.81c0.17,0.64,0.35,1.28,0.52,1.92c-7.69,6.37-15.31,12.82-23.17,18.97 c-0.85,0.67-3.47,0.08-4.6-0.79c-2.95-2.28-5.79-3.17-8.31,0.02c-2.48,3.14-0.85,6.04,1.63,8.42 c4.49,4.32,12.07,5.05,17.63,0.82c7.98-6.07,15.85-12.39,23.08-19.33c7.47-7.18,4.44-17.72-5.54-20.45 c-6.89-1.89-13.95-3.21-20.95-4.71c-13.85-2.96-27.72-5.82-41.55-8.84c-1.61-0.35-3.06-1.44-4.58-2.19 c1.03-1.47,1.82-3.21,3.14-4.36c5.65-4.92,11.45-9.67,17.2-14.47c2.28-1.91,4.54-2.99,7.07-0.29c2.53,2.69,5.33,2.89,7.85,0.11 c2.8-3.09,1.35-5.92-1.11-8.37c-4.74-4.74-13.03-5.32-18.87-0.77c-7.54,5.87-14.84,12.08-21.96,18.47 c-1.86,1.67-3.28,4.42-3.78,6.9c-1.44,7.11,2.44,12.73,9.87,14.4c16.14,3.64,32.34,7.03,48.51,10.54 C506.11,577.1,512.07,578.47,518.04,579.81z" style="fill: rgb(255, 255, 255);"/>
          <path class="st2" d="M473.27,445.49c-6.48,7.64-14.22,13.83-23.06,18.61c-38.46,20.78-85.21,7.17-108.67-31.59 c-27.91-46.12-9.43-107.66,38.73-128.98c31.53-13.96,69.3-5.6,92.04,20.39c0.62,0.71,1.14,1.5,1.37,2.81 c-0.96-0.52-1.98-0.96-2.87-1.59c-42.52-29.87-98.17-5.13-107.54,46.04c-5.89,32.11,7.69,62.99,34.16,78.05 c23.7,13.48,47.45,12.36,70.65-1.8c1.48-0.9,2.92-1.88,4.38-2.82C472.72,444.9,472.99,445.2,473.27,445.49z" style="fill: rgb(255, 255, 255);"/>
          <path class="st2" d="M457.48,422.29c-4.76-6.15-9.65-12.2-14.2-18.51c-1.99-2.75-3.77-3.48-7.11-2.32 c-7.75,2.68-15.67,4.86-24.19,6.33c5.64-7.38,11.28-14.77,17.08-22.35c-5.79-7.56-11.46-14.97-17.13-22.38 c0.19-0.29,0.39-0.58,0.58-0.87c7.7,2.31,15.5,4.35,23.05,7.06c3.9,1.4,5.94,0.45,8.2-2.74c4.37-6.17,9.18-12.04,14.83-17.66 c0,8.96,0,17.92,0,27.26c9.46,2.98,18.58,5.85,27.69,8.71c0.02,0.41,0.03,0.83,0.05,1.24c-6.86,2.12-13.64,4.57-20.61,6.24 c-5.31,1.27-7.54,3.55-6.99,9.33c0.63,6.71,0.15,13.54,0.15,20.31C458.4,422.07,457.94,422.18,457.48,422.29z" style="fill: rgb(255, 255, 255);"/>
        </g>
      </g>
    </g>
  </g>
</svg>